<svg width="353" height="200" viewBox="0 0 353 200" fill="none" xmlns="http://www.w3.org/2000/svg">
<mask id="mask0_11_2061" style="mask-type:alpha" maskUnits="userSpaceOnUse" x="10" y="9" width="333" height="180">
<rect x="10" y="9" width="333" height="180" rx="7.76676" fill="#222222"/>
</mask>
<g mask="url(#mask0_11_2061)">
<g filter="url(#filter0_d_11_2061)">
<rect x="10" y="9" width="333" height="180" rx="7.76676" fill="#242424"/>
</g>
<path d="M131.837 109C152.307 105.976 173.945 108.974 190.133 112.599C207.453 116.477 224.853 120.53 242.571 121.573C275.275 123.496 307.965 117.582 337.922 104.321L344.351 101.475L352.603 195.647H73L75.0746 179.88C75.3095 178.095 75.6173 176.326 76.0833 174.587C79.2544 162.753 94.3983 114.531 131.837 109Z" fill="url(#paint0_linear_11_2061)" fill-opacity="0.05"/>
</g>
<g clip-path="url(#clip0_11_2061)">
<path d="M40.6478 53.1506V51.5441C40.6478 50.9283 40.2748 50.5267 39.6354 50.5267C39.3158 50.5267 38.9694 50.6338 38.7297 50.9818C38.5432 50.6873 38.2768 50.5267 37.8772 50.5267C37.6108 50.5267 37.3444 50.607 37.1312 50.9015V50.5802H36.5718V53.1506H37.1312V51.7315C37.1312 51.2764 37.371 51.0622 37.744 51.0622C38.1169 51.0622 38.3034 51.3031 38.3034 51.7315V53.1506H38.8629V51.7315C38.8629 51.2764 39.1293 51.0622 39.4756 51.0622C39.8486 51.0622 40.0351 51.3031 40.0351 51.7315V53.1506H40.6478ZM48.933 50.5802H48.0272V49.8038H47.4678V50.5802H46.9616V51.0889H47.4678V52.267C47.4678 52.856 47.7075 53.2041 48.3469 53.2041C48.5867 53.2041 48.8531 53.1238 49.0396 53.0167L48.8797 52.5348C48.7199 52.6419 48.5334 52.6686 48.4002 52.6686C48.1338 52.6686 48.0272 52.508 48.0272 52.2402V51.0889H48.933V50.5802ZM53.675 50.5267C53.3553 50.5267 53.1422 50.6873 53.009 50.9015V50.5802H52.4496V53.1506H53.009V51.7047C53.009 51.2764 53.1955 51.0354 53.5418 51.0354C53.6484 51.0354 53.7816 51.0622 53.8882 51.0889L54.048 50.5534C53.9414 50.5267 53.7816 50.5267 53.675 50.5267ZM46.5087 50.7944C46.2423 50.607 45.8693 50.5267 45.4697 50.5267C44.8304 50.5267 44.4041 50.848 44.4041 51.3567C44.4041 51.7851 44.7238 52.026 45.2832 52.1064L45.5497 52.1331C45.8427 52.1867 46.0025 52.267 46.0025 52.4009C46.0025 52.5883 45.7894 52.7222 45.4164 52.7222C45.0435 52.7222 44.7504 52.5883 44.5639 52.4544L44.2975 52.8828C44.5906 53.097 44.9902 53.2041 45.3898 53.2041C46.1357 53.2041 46.562 52.856 46.562 52.3741C46.562 51.9189 46.2157 51.678 45.6829 51.5976L45.4164 51.5709C45.1767 51.5441 44.9902 51.4905 44.9902 51.3299C44.9902 51.1425 45.1767 51.0354 45.4697 51.0354C45.7894 51.0354 46.1091 51.1693 46.2689 51.2496L46.5087 50.7944ZM61.3742 50.5267C61.0545 50.5267 60.8413 50.6873 60.7081 50.9015V50.5802H60.1487V53.1506H60.7081V51.7047C60.7081 51.2764 60.8946 51.0354 61.241 51.0354C61.3475 51.0354 61.4807 51.0622 61.5873 51.0889L61.7471 50.5534C61.6406 50.5267 61.4807 50.5267 61.3742 50.5267ZM54.2345 51.8654C54.2345 52.6419 54.7673 53.2041 55.5931 53.2041C55.9661 53.2041 56.2325 53.1238 56.4989 52.9096L56.2325 52.4544C56.0194 52.6151 55.8063 52.6954 55.5665 52.6954C55.1136 52.6954 54.7939 52.3741 54.7939 51.8654C54.7939 51.3835 55.1136 51.0622 55.5665 51.0354C55.8063 51.0354 56.0194 51.1157 56.2325 51.2764L56.4989 50.8212C56.2325 50.607 55.9661 50.5267 55.5931 50.5267C54.7673 50.5267 54.2345 51.0889 54.2345 51.8654ZM59.4028 51.8654V50.5802H58.8433V50.9015C58.6568 50.6605 58.3904 50.5267 58.0441 50.5267C57.3248 50.5267 56.7653 51.0889 56.7653 51.8654C56.7653 52.6419 57.3248 53.2041 58.0441 53.2041C58.417 53.2041 58.6835 53.0702 58.8433 52.8293V53.1506H59.4028V51.8654ZM57.3514 51.8654C57.3514 51.4102 57.6445 51.0354 58.124 51.0354C58.5769 51.0354 58.8966 51.3835 58.8966 51.8654C58.8966 52.3206 58.5769 52.6954 58.124 52.6954C57.6445 52.6686 57.3514 52.3206 57.3514 51.8654ZM50.6646 50.5267C49.9187 50.5267 49.3859 51.0622 49.3859 51.8654C49.3859 52.6686 49.9187 53.2041 50.6913 53.2041C51.0642 53.2041 51.4372 53.097 51.7303 52.856L51.4639 52.4544C51.2507 52.6151 50.9843 52.7222 50.7179 52.7222C50.3716 52.7222 50.0253 52.5615 49.9453 52.1064H51.8368V51.8922C51.8635 51.0622 51.3839 50.5267 50.6646 50.5267ZM50.6646 51.0086C51.011 51.0086 51.2507 51.2228 51.304 51.6244H49.972C50.0253 51.2764 50.265 51.0086 50.6646 51.0086ZM64.5444 51.8654V49.5628H63.9849V50.9015C63.7984 50.6605 63.532 50.5267 63.1857 50.5267C62.4664 50.5267 61.907 51.0889 61.907 51.8654C61.907 52.6419 62.4664 53.2041 63.1857 53.2041C63.5587 53.2041 63.8251 53.0702 63.9849 52.8293V53.1506H64.5444V51.8654ZM62.4931 51.8654C62.4931 51.4102 62.7861 51.0354 63.2656 51.0354C63.7185 51.0354 64.0382 51.3835 64.0382 51.8654C64.0382 52.3206 63.7185 52.6954 63.2656 52.6954C62.7861 52.6686 62.4931 52.3206 62.4931 51.8654ZM43.7914 51.8654V50.5802H43.2319V50.9015C43.0454 50.6605 42.779 50.5267 42.4327 50.5267C41.7134 50.5267 41.154 51.0889 41.154 51.8654C41.154 52.6419 41.7134 53.2041 42.4327 53.2041C42.8057 53.2041 43.0721 53.0702 43.2319 52.8293V53.1506H43.7914V51.8654ZM41.7134 51.8654C41.7134 51.4102 42.0065 51.0354 42.486 51.0354C42.9389 51.0354 43.2586 51.3835 43.2586 51.8654C43.2586 52.3206 42.9389 52.6954 42.486 52.6954C42.0065 52.6686 41.7134 52.3206 41.7134 51.8654Z" fill="white"/>
<path d="M54.714 31.0617H46.3222V46.2161H54.714V31.0617Z" fill="#FF5F00"/>
<path d="M46.8551 38.6388C46.8551 35.5597 48.2936 32.8287 50.5048 31.0616C48.8797 29.7764 46.8284 29 44.5906 29C39.2891 29 35 33.3107 35 38.6388C35 43.9669 39.2891 48.2776 44.5906 48.2776C46.8284 48.2776 48.8797 47.5011 50.5048 46.216C48.2936 44.4756 46.8551 41.7178 46.8551 38.6388Z" fill="#EB001B"/>
<path d="M66.0363 38.6388C66.0363 43.9669 61.7472 48.2776 56.4457 48.2776C54.2079 48.2776 52.1566 47.5011 50.5315 46.2159C52.7693 44.4488 54.1813 41.7178 54.1813 38.6388C54.1813 35.5597 52.7427 32.8287 50.5315 31.0616C52.1566 29.7764 54.2079 29 56.4457 29C61.7472 29 66.0363 33.3374 66.0363 38.6388Z" fill="#F79E1B"/>
</g>
<path d="M43.38 80.2522V81.7322L40.58 81.6122L42.08 83.9722L40.8 84.7122L39.5 82.2122L38.2 84.7122L36.94 83.9722L38.44 81.6122L35.64 81.7322V80.2522L38.46 80.3922L36.96 78.0122L38.22 77.2722L39.52 79.7722L40.8 77.2722L42.08 78.0322L40.58 80.3922L43.38 80.2522ZM57.6769 80.2522V81.7322L54.8769 81.6122L56.3769 83.9722L55.0969 84.7122L53.7969 82.2122L52.4969 84.7122L51.2369 83.9722L52.7369 81.6122L49.9369 81.7322V80.2522L52.7569 80.3922L51.2569 78.0122L52.5169 77.2722L53.8169 79.7722L55.0969 77.2722L56.3769 78.0322L54.8769 80.3922L57.6769 80.2522ZM71.9738 80.2522V81.7322L69.1738 81.6122L70.6738 83.9722L69.3938 84.7122L68.0938 82.2122L66.7938 84.7122L65.5338 83.9722L67.0338 81.6122L64.2338 81.7322V80.2522L67.0538 80.3922L65.5538 78.0122L66.8138 77.2722L68.1138 79.7722L69.3938 77.2722L70.6738 78.0322L69.1738 80.3922L71.9738 80.2522ZM86.2706 80.2522V81.7322L83.4706 81.6122L84.9706 83.9722L83.6906 84.7122L82.3906 82.2122L81.0906 84.7122L79.8306 83.9722L81.3306 81.6122L78.5306 81.7322V80.2522L81.3506 80.3922L79.8506 78.0122L81.1106 77.2722L82.4106 79.7722L83.6906 77.2722L84.9706 78.0322L83.4706 80.3922L86.2706 80.2522ZM105.841 80.2522V81.7322L103.041 81.6122L104.541 83.9722L103.261 84.7122L101.961 82.2122L100.661 84.7122L99.4009 83.9722L100.901 81.6122L98.1009 81.7322V80.2522L100.921 80.3922L99.4209 78.0122L100.681 77.2722L101.981 79.7722L103.261 77.2722L104.541 78.0322L103.041 80.3922L105.841 80.2522ZM120.138 80.2522V81.7322L117.338 81.6122L118.838 83.9722L117.558 84.7122L116.258 82.2122L114.958 84.7122L113.698 83.9722L115.198 81.6122L112.398 81.7322V80.2522L115.218 80.3922L113.718 78.0122L114.978 77.2722L116.278 79.7722L117.558 77.2722L118.838 78.0322L117.338 80.3922L120.138 80.2522ZM134.435 80.2522V81.7322L131.635 81.6122L133.135 83.9722L131.855 84.7122L130.555 82.2122L129.255 84.7122L127.995 83.9722L129.495 81.6122L126.695 81.7322V80.2522L129.515 80.3922L128.015 78.0122L129.275 77.2722L130.575 79.7722L131.855 77.2722L133.135 78.0322L131.635 80.3922L134.435 80.2522ZM148.732 80.2522V81.7322L145.932 81.6122L147.432 83.9722L146.152 84.7122L144.852 82.2122L143.552 84.7122L142.292 83.9722L143.792 81.6122L140.992 81.7322V80.2522L143.812 80.3922L142.312 78.0122L143.572 77.2722L144.872 79.7722L146.152 77.2722L147.432 78.0322L145.932 80.3922L148.732 80.2522ZM168.302 80.2522V81.7322L165.502 81.6122L167.002 83.9722L165.722 84.7122L164.422 82.2122L163.122 84.7122L161.862 83.9722L163.362 81.6122L160.562 81.7322V80.2522L163.382 80.3922L161.882 78.0122L163.142 77.2722L164.442 79.7722L165.722 77.2722L167.002 78.0322L165.502 80.3922L168.302 80.2522ZM182.599 80.2522V81.7322L179.799 81.6122L181.299 83.9722L180.019 84.7122L178.719 82.2122L177.419 84.7122L176.159 83.9722L177.659 81.6122L174.859 81.7322V80.2522L177.679 80.3922L176.179 78.0122L177.439 77.2722L178.739 79.7722L180.019 77.2722L181.299 78.0322L179.799 80.3922L182.599 80.2522ZM196.896 80.2522V81.7322L194.096 81.6122L195.596 83.9722L194.316 84.7122L193.016 82.2122L191.716 84.7122L190.456 83.9722L191.956 81.6122L189.156 81.7322V80.2522L191.976 80.3922L190.476 78.0122L191.736 77.2722L193.036 79.7722L194.316 77.2722L195.596 78.0322L194.096 80.3922L196.896 80.2522ZM211.193 80.2522V81.7322L208.393 81.6122L209.893 83.9722L208.613 84.7122L207.313 82.2122L206.013 84.7122L204.753 83.9722L206.253 81.6122L203.453 81.7322V80.2522L206.273 80.3922L204.773 78.0122L206.033 77.2722L207.333 79.7722L208.613 77.2722L209.893 78.0322L208.393 80.3922L211.193 80.2522ZM229.548 84.4122L234.908 91.6122H232.968L228.608 85.6322L224.248 91.6122H222.308L227.668 84.3922L222.568 77.5122H224.508L228.628 83.1722L232.748 77.5122H234.668L229.548 84.4122ZM242.478 84.4122L247.838 91.6122H245.898L241.538 85.6322L237.178 91.6122H235.238L240.598 84.3922L235.498 77.5122H237.438L241.558 83.1722L245.678 77.5122H247.598L242.478 84.4122ZM255.408 84.4122L260.768 91.6122H258.828L254.468 85.6322L250.108 91.6122H248.168L253.528 84.3922L248.428 77.5122H250.368L254.488 83.1722L258.608 77.5122H260.528L255.408 84.4122ZM268.338 84.4122L273.698 91.6122H271.758L267.398 85.6322L263.038 91.6122H261.098L266.458 84.3922L261.358 77.5122H263.298L267.418 83.1722L271.538 77.5122H273.458L268.338 84.4122Z" fill="white"/>
<path opacity="0.8" d="M39.7958 138.813C38.9798 138.813 38.2678 138.637 37.6598 138.285C37.0598 137.933 36.5958 137.433 36.2678 136.785C35.9478 136.129 35.7878 135.361 35.7878 134.481C35.7878 133.601 35.9478 132.837 36.2678 132.189C36.5958 131.533 37.0598 131.033 37.6598 130.689C38.2678 130.337 38.9798 130.161 39.7958 130.161C40.3718 130.161 40.9078 130.253 41.4038 130.437C41.8998 130.613 42.3198 130.869 42.6638 131.205L42.2318 132.117C41.8398 131.789 41.4478 131.553 41.0558 131.409C40.6718 131.265 40.2558 131.193 39.8078 131.193C38.9278 131.193 38.2478 131.477 37.7678 132.045C37.2958 132.613 37.0598 133.425 37.0598 134.481C37.0598 135.537 37.2958 136.353 37.7678 136.929C38.2478 137.497 38.9278 137.781 39.8078 137.781C40.2558 137.781 40.6718 137.709 41.0558 137.565C41.4478 137.421 41.8398 137.185 42.2318 136.857L42.6638 137.769C42.3198 138.105 41.8998 138.365 41.4038 138.549C40.9078 138.725 40.3718 138.813 39.7958 138.813ZM46.3837 132.717C47.1677 132.717 47.7477 132.913 48.1237 133.305C48.5077 133.697 48.6997 134.293 48.6997 135.093V138.717H47.5357V137.745C47.3837 138.089 47.1557 138.353 46.8517 138.537C46.5557 138.713 46.2077 138.801 45.8077 138.801C45.4237 138.801 45.0717 138.725 44.7517 138.573C44.4317 138.413 44.1797 138.193 43.9957 137.913C43.8197 137.633 43.7317 137.321 43.7317 136.977C43.7317 136.553 43.8397 136.221 44.0557 135.981C44.2797 135.733 44.6437 135.557 45.1477 135.453C45.6597 135.349 46.3597 135.297 47.2477 135.297H47.5237V134.949C47.5237 134.501 47.4277 134.177 47.2357 133.977C47.0517 133.777 46.7477 133.677 46.3237 133.677C45.6597 133.677 44.9957 133.881 44.3317 134.289L43.9717 133.437C44.2837 133.221 44.6597 133.049 45.0997 132.921C45.5477 132.785 45.9757 132.717 46.3837 132.717ZM46.0237 137.901C46.4637 137.901 46.8237 137.753 47.1037 137.457C47.3837 137.153 47.5237 136.765 47.5237 136.293V135.981H47.3077C46.6837 135.981 46.2037 136.009 45.8677 136.065C45.5317 136.121 45.2917 136.217 45.1477 136.353C45.0037 136.481 44.9317 136.669 44.9317 136.917C44.9317 137.197 45.0317 137.433 45.2317 137.625C45.4397 137.809 45.7037 137.901 46.0237 137.901ZM53.9216 133.737L53.1896 133.809C52.6136 133.865 52.1976 134.041 51.9416 134.337C51.6936 134.633 51.5696 135.009 51.5696 135.465V138.717H50.3576V132.861H51.5336V133.881C51.8456 133.193 52.4816 132.813 53.4416 132.741L53.8376 132.717L53.9216 133.737ZM60.0349 130.257V138.717H58.8349V137.709C58.6589 138.061 58.4029 138.333 58.0669 138.525C57.7309 138.709 57.3429 138.801 56.9029 138.801C56.3989 138.801 55.9469 138.673 55.5469 138.417C55.1549 138.161 54.8469 137.801 54.6229 137.337C54.4069 136.873 54.2989 136.341 54.2989 135.741C54.2989 135.133 54.4069 134.601 54.6229 134.145C54.8469 133.689 55.1549 133.337 55.5469 133.089C55.9389 132.841 56.3909 132.717 56.9029 132.717C57.3429 132.717 57.7269 132.813 58.0549 133.005C58.3909 133.189 58.6469 133.453 58.8229 133.797V130.257H60.0349ZM57.1909 137.841C57.7189 137.841 58.1229 137.661 58.4029 137.301C58.6909 136.941 58.8349 136.429 58.8349 135.765C58.8349 135.101 58.6909 134.589 58.4029 134.229C58.1229 133.869 57.7189 133.689 57.1909 133.689C56.6629 133.689 56.2509 133.869 55.9549 134.229C55.6669 134.581 55.5229 135.085 55.5229 135.741C55.5229 136.397 55.6709 136.913 55.9669 137.289C56.2629 137.657 56.6709 137.841 57.1909 137.841ZM70.9848 130.257H72.2088V138.717H70.9848V134.925H66.2568V138.717H65.0328V130.257H66.2568V133.917H70.9848V130.257ZM76.5735 138.801C75.9975 138.801 75.4895 138.677 75.0495 138.429C74.6175 138.181 74.2815 137.829 74.0415 137.373C73.8095 136.909 73.6935 136.373 73.6935 135.765C73.6935 135.149 73.8095 134.613 74.0415 134.157C74.2815 133.693 74.6175 133.337 75.0495 133.089C75.4895 132.841 75.9975 132.717 76.5735 132.717C77.1495 132.717 77.6535 132.841 78.0855 133.089C78.5255 133.337 78.8615 133.693 79.0935 134.157C79.3335 134.613 79.4535 135.149 79.4535 135.765C79.4535 136.373 79.3335 136.909 79.0935 137.373C78.8615 137.829 78.5255 138.181 78.0855 138.429C77.6535 138.677 77.1495 138.801 76.5735 138.801ZM76.5735 137.841C77.1095 137.841 77.5175 137.665 77.7975 137.313C78.0855 136.961 78.2295 136.445 78.2295 135.765C78.2295 135.093 78.0855 134.581 77.7975 134.229C77.5095 133.869 77.1015 133.689 76.5735 133.689C76.0455 133.689 75.6375 133.869 75.3495 134.229C75.0615 134.581 74.9175 135.093 74.9175 135.765C74.9175 136.445 75.0575 136.961 75.3375 137.313C75.6255 137.665 76.0375 137.841 76.5735 137.841ZM80.8029 138.717V130.257H82.0149V138.717H80.8029ZM89.1091 130.257V138.717H87.9091V137.709C87.7331 138.061 87.4771 138.333 87.1411 138.525C86.8051 138.709 86.4171 138.801 85.9771 138.801C85.4731 138.801 85.0211 138.673 84.6211 138.417C84.2291 138.161 83.9211 137.801 83.6971 137.337C83.4811 136.873 83.3731 136.341 83.3731 135.741C83.3731 135.133 83.4811 134.601 83.6971 134.145C83.9211 133.689 84.2291 133.337 84.6211 133.089C85.0131 132.841 85.4651 132.717 85.9771 132.717C86.4171 132.717 86.8011 132.813 87.1291 133.005C87.4651 133.189 87.7211 133.453 87.8971 133.797V130.257H89.1091ZM86.2651 137.841C86.7931 137.841 87.1971 137.661 87.4771 137.301C87.7651 136.941 87.9091 136.429 87.9091 135.765C87.9091 135.101 87.7651 134.589 87.4771 134.229C87.1971 133.869 86.7931 133.689 86.2651 133.689C85.7371 133.689 85.3251 133.869 85.0291 134.229C84.7411 134.581 84.5971 135.085 84.5971 135.741C84.5971 136.397 84.7451 136.913 85.0411 137.289C85.3371 137.657 85.7451 137.841 86.2651 137.841ZM95.815 135.993H91.675C91.763 137.233 92.379 137.853 93.523 137.853C94.195 137.853 94.803 137.633 95.347 137.193L95.719 138.045C95.447 138.277 95.111 138.461 94.711 138.597C94.311 138.733 93.903 138.801 93.487 138.801C92.551 138.801 91.811 138.533 91.267 137.997C90.731 137.461 90.463 136.721 90.463 135.777C90.463 135.177 90.579 134.645 90.811 134.181C91.051 133.717 91.383 133.357 91.807 133.101C92.239 132.845 92.727 132.717 93.271 132.717C94.063 132.717 94.683 132.973 95.131 133.485C95.587 133.997 95.815 134.705 95.815 135.609V135.993ZM93.295 133.605C92.831 133.605 92.459 133.753 92.179 134.049C91.907 134.337 91.743 134.753 91.687 135.297H94.771C94.747 134.753 94.607 134.337 94.351 134.049C94.103 133.753 93.751 133.605 93.295 133.605ZM100.715 133.737L99.9825 133.809C99.4065 133.865 98.9905 134.041 98.7345 134.337C98.4865 134.633 98.3625 135.009 98.3625 135.465V138.717H97.1505V132.861H98.3265V133.881C98.6385 133.193 99.2745 132.813 100.235 132.741L100.631 132.717L100.715 133.737ZM110.637 130.257H111.801V138.717H110.853L106.017 132.333V138.717H104.853V130.257H105.789L110.637 136.653V130.257ZM116.075 132.717C116.859 132.717 117.439 132.913 117.815 133.305C118.199 133.697 118.391 134.293 118.391 135.093V138.717H117.227V137.745C117.075 138.089 116.847 138.353 116.543 138.537C116.247 138.713 115.899 138.801 115.499 138.801C115.115 138.801 114.763 138.725 114.443 138.573C114.123 138.413 113.871 138.193 113.687 137.913C113.511 137.633 113.423 137.321 113.423 136.977C113.423 136.553 113.531 136.221 113.747 135.981C113.971 135.733 114.335 135.557 114.839 135.453C115.351 135.349 116.051 135.297 116.939 135.297H117.215V134.949C117.215 134.501 117.119 134.177 116.927 133.977C116.743 133.777 116.439 133.677 116.015 133.677C115.351 133.677 114.687 133.881 114.023 134.289L113.663 133.437C113.975 133.221 114.351 133.049 114.791 132.921C115.239 132.785 115.667 132.717 116.075 132.717ZM115.715 137.901C116.155 137.901 116.515 137.753 116.795 137.457C117.075 137.153 117.215 136.765 117.215 136.293V135.981H116.999C116.375 135.981 115.895 136.009 115.559 136.065C115.223 136.121 114.983 136.217 114.839 136.353C114.695 136.481 114.623 136.669 114.623 136.917C114.623 137.197 114.723 137.433 114.923 137.625C115.131 137.809 115.395 137.901 115.715 137.901ZM126.769 132.717C128.081 132.717 128.737 133.505 128.737 135.081V138.717H127.525V135.129C127.525 134.633 127.437 134.273 127.261 134.049C127.093 133.817 126.817 133.701 126.433 133.701C125.993 133.701 125.645 133.853 125.389 134.157C125.133 134.461 125.005 134.877 125.005 135.405V138.717H123.793V135.129C123.793 134.633 123.705 134.273 123.529 134.049C123.353 133.817 123.077 133.701 122.701 133.701C122.253 133.701 121.901 133.853 121.645 134.157C121.389 134.461 121.261 134.877 121.261 135.405V138.717H120.049V132.861H121.237V133.749C121.421 133.421 121.669 133.169 121.981 132.993C122.293 132.809 122.649 132.717 123.049 132.717C123.953 132.717 124.541 133.093 124.813 133.845C124.997 133.493 125.261 133.217 125.605 133.017C125.949 132.817 126.337 132.717 126.769 132.717ZM135.413 135.993H131.273C131.361 137.233 131.977 137.853 133.121 137.853C133.793 137.853 134.401 137.633 134.945 137.193L135.317 138.045C135.045 138.277 134.709 138.461 134.309 138.597C133.909 138.733 133.501 138.801 133.085 138.801C132.149 138.801 131.409 138.533 130.865 137.997C130.329 137.461 130.061 136.721 130.061 135.777C130.061 135.177 130.177 134.645 130.409 134.181C130.649 133.717 130.981 133.357 131.405 133.101C131.837 132.845 132.325 132.717 132.869 132.717C133.661 132.717 134.281 132.973 134.729 133.485C135.185 133.997 135.413 134.705 135.413 135.609V135.993ZM132.893 133.605C132.429 133.605 132.057 133.753 131.777 134.049C131.505 134.337 131.341 134.753 131.285 135.297H134.369C134.345 134.753 134.205 134.337 133.949 134.049C133.701 133.753 133.349 133.605 132.893 133.605Z" fill="white"/>
<path opacity="0.8" d="M239.984 138.717V130.257H245.48V131.253H241.196V133.917H245.24V134.925H241.196V137.721H245.48V138.717H239.984ZM249.872 135.705L252.32 138.717H250.868L249.164 136.581L247.472 138.717H246.02L248.468 135.705L246.152 132.861H247.616L249.164 134.841L250.724 132.861H252.176L249.872 135.705ZM256.308 132.717C256.812 132.717 257.26 132.845 257.652 133.101C258.052 133.357 258.36 133.717 258.576 134.181C258.8 134.645 258.912 135.181 258.912 135.789C258.912 136.389 258.804 136.917 258.588 137.373C258.372 137.829 258.064 138.181 257.664 138.429C257.272 138.677 256.82 138.801 256.308 138.801C255.868 138.801 255.48 138.709 255.144 138.525C254.808 138.333 254.552 138.061 254.376 137.709V140.877H253.164V132.861H254.376V133.821C254.552 133.469 254.808 133.197 255.144 133.005C255.48 132.813 255.868 132.717 256.308 132.717ZM256.02 137.841C256.548 137.841 256.956 137.665 257.244 137.313C257.532 136.953 257.676 136.445 257.676 135.789C257.676 135.125 257.528 134.609 257.232 134.241C256.944 133.873 256.54 133.689 256.02 133.689C255.492 133.689 255.084 133.869 254.796 134.229C254.516 134.589 254.376 135.101 254.376 135.765C254.376 136.429 254.516 136.941 254.796 137.301C255.084 137.661 255.492 137.841 256.02 137.841ZM260.254 138.717V132.861H261.466V138.717H260.254ZM260.17 130.245H261.562V131.505H260.17V130.245ZM266.724 133.737L265.992 133.809C265.416 133.865 265 134.041 264.744 134.337C264.496 134.633 264.372 135.009 264.372 135.465V138.717H263.16V132.861H264.336V133.881C264.648 133.193 265.284 132.813 266.244 132.741L266.64 132.717L266.724 133.737ZM272.07 132.873H273.282L269.79 140.877H268.566L269.586 138.573L267.126 132.873H268.398L270.222 137.349L272.07 132.873ZM277.461 130.257H280.425C281.793 130.257 282.853 130.625 283.605 131.361C284.357 132.097 284.733 133.137 284.733 134.481C284.733 135.825 284.357 136.869 283.605 137.613C282.853 138.349 281.793 138.717 280.425 138.717H277.461V130.257ZM280.353 137.685C282.433 137.685 283.473 136.617 283.473 134.481C283.473 132.353 282.433 131.289 280.353 131.289H278.697V137.685H280.353ZM288.718 132.717C289.502 132.717 290.082 132.913 290.458 133.305C290.842 133.697 291.034 134.293 291.034 135.093V138.717H289.87V137.745C289.718 138.089 289.49 138.353 289.186 138.537C288.89 138.713 288.542 138.801 288.142 138.801C287.758 138.801 287.406 138.725 287.086 138.573C286.766 138.413 286.514 138.193 286.33 137.913C286.154 137.633 286.066 137.321 286.066 136.977C286.066 136.553 286.174 136.221 286.39 135.981C286.614 135.733 286.978 135.557 287.482 135.453C287.994 135.349 288.694 135.297 289.582 135.297H289.858V134.949C289.858 134.501 289.762 134.177 289.57 133.977C289.386 133.777 289.082 133.677 288.658 133.677C287.994 133.677 287.33 133.881 286.666 134.289L286.306 133.437C286.618 133.221 286.994 133.049 287.434 132.921C287.882 132.785 288.31 132.717 288.718 132.717ZM288.358 137.901C288.798 137.901 289.158 137.753 289.438 137.457C289.718 137.153 289.858 136.765 289.858 136.293V135.981H289.642C289.018 135.981 288.538 136.009 288.202 136.065C287.866 136.121 287.626 136.217 287.482 136.353C287.338 136.481 287.266 136.669 287.266 136.917C287.266 137.197 287.366 137.433 287.566 137.625C287.774 137.809 288.038 137.901 288.358 137.901ZM295.464 137.865C295.648 137.865 295.828 137.853 296.004 137.829L295.944 138.753C295.744 138.785 295.536 138.801 295.32 138.801C294.56 138.801 293.992 138.617 293.616 138.249C293.248 137.873 293.064 137.333 293.064 136.629V133.797H291.924V132.861H293.064V131.097H294.276V132.861H295.884V133.797H294.276V136.581C294.276 137.437 294.672 137.865 295.464 137.865ZM301.938 135.993H297.798C297.886 137.233 298.502 137.853 299.646 137.853C300.318 137.853 300.926 137.633 301.47 137.193L301.842 138.045C301.57 138.277 301.234 138.461 300.834 138.597C300.434 138.733 300.026 138.801 299.61 138.801C298.674 138.801 297.934 138.533 297.39 137.997C296.854 137.461 296.586 136.721 296.586 135.777C296.586 135.177 296.702 134.645 296.934 134.181C297.174 133.717 297.506 133.357 297.93 133.101C298.362 132.845 298.85 132.717 299.394 132.717C300.186 132.717 300.806 132.973 301.254 133.485C301.71 133.997 301.938 134.705 301.938 135.609V135.993ZM299.418 133.605C298.954 133.605 298.582 133.753 298.302 134.049C298.03 134.337 297.866 134.753 297.81 135.297H300.894C300.87 134.753 300.73 134.337 300.474 134.049C300.226 133.753 299.874 133.605 299.418 133.605Z" fill="white"/>
<path d="M40.404 156.137L44.156 161.163H42.462L39.578 157.201L36.694 161.163H35L38.766 156.123L35.154 151.293H36.848L39.592 155.059L42.322 151.293H44.002L40.404 156.137ZM49.1681 156.137L52.9201 161.163H51.2261L48.3421 157.201L45.4581 161.163H43.7641L47.5301 156.123L43.9181 151.293H45.6121L48.3561 155.059L51.0861 151.293H52.7661L49.1681 156.137ZM57.9321 156.137L61.6841 161.163H59.9901L57.1061 157.201L54.2221 161.163H52.5281L56.2941 156.123L52.6821 151.293H54.3761L57.1201 155.059L59.8501 151.293H61.5301L57.9321 156.137ZM66.6962 156.137L70.4482 161.163H68.7542L65.8702 157.201L62.9862 161.163H61.2922L65.0582 156.123L61.4462 151.293H63.1402L65.8842 155.059L68.6142 151.293H70.2942L66.6962 156.137ZM75.4602 156.137L79.2122 161.163H77.5182L74.6342 157.201L71.7502 161.163H70.0562L73.8222 156.123L70.2102 151.293H71.9042L74.6482 155.059L77.3782 151.293H79.0582L75.4602 156.137ZM84.2243 156.137L87.9763 161.163H86.2823L83.3983 157.201L80.5143 161.163H78.8203L82.5863 156.123L78.9743 151.293H80.6683L83.4123 155.059L86.1423 151.293H87.8223L84.2243 156.137Z" fill="white"/>
<path d="M244.404 156.137L248.156 161.163H246.462L243.578 157.201L240.694 161.163H239L242.766 156.123L239.154 151.293H240.848L243.592 155.059L246.322 151.293H248.002L244.404 156.137ZM253.168 156.137L256.92 161.163H255.226L252.342 157.201L249.458 161.163H247.764L251.53 156.123L247.918 151.293H249.612L252.356 155.059L255.086 151.293H256.766L253.168 156.137ZM257.642 162.115L256.522 161.765L260.106 150.579L261.226 150.929L257.642 162.115ZM266.089 156.137L269.841 161.163H268.147L265.263 157.201L262.379 161.163H260.685L264.451 156.123L260.839 151.293H262.533L265.277 155.059L268.007 151.293H269.687L266.089 156.137ZM274.853 156.137L278.605 161.163H276.911L274.027 157.201L271.143 161.163H269.449L273.215 156.123L269.603 151.293H271.297L274.041 155.059L276.771 151.293H278.451L274.853 156.137Z" fill="white"/>
<g clip-path="url(#clip1_11_2061)">
<path d="M99.9835 33.283L93.4375 48.758H89.167L85.9456 36.4079C85.7499 35.6475 85.5803 35.3685 84.9857 35.0487C84.0146 34.5259 82.4108 34.0361 81 33.7318L81.0952 33.283H87.9703C88.4198 33.2823 88.8547 33.4409 89.1964 33.7303C89.5381 34.0196 89.7641 34.4205 89.8334 34.8606L91.5348 43.8157L95.7398 33.283H99.9835ZM116.718 43.7052C116.736 39.6214 111.018 39.3959 111.057 37.5711C111.07 37.0163 111.603 36.4263 112.771 36.2751C114.137 36.1465 115.513 36.3857 116.754 36.9673L117.464 33.6862C116.255 33.2365 114.975 33.0041 113.684 33C109.691 33 106.88 35.1037 106.857 38.1152C106.831 40.344 108.863 41.586 110.395 42.3271C111.968 43.0854 112.496 43.5719 112.49 44.25C112.479 45.2889 111.235 45.7467 110.072 45.7647C108.041 45.796 106.862 45.2207 105.922 44.7869L105.191 48.1781C106.134 48.6072 107.877 48.9817 109.684 49C113.928 49 116.704 46.9233 116.718 43.7052ZM127.263 48.758H131L127.738 33.283H124.29C123.921 33.2797 123.56 33.3861 123.254 33.5885C122.947 33.7908 122.709 34.0798 122.57 34.418L116.508 48.758H120.749L121.592 46.4461H126.775L127.263 48.758ZM122.755 43.2749L124.882 37.4644L126.106 43.2749H122.755ZM105.757 33.283L102.416 48.758H98.375L101.717 33.283H105.757Z" fill="white"/>
</g>
<defs>
<filter id="filter0_d_11_2061" x="0" y="0" width="353" height="200" filterUnits="userSpaceOnUse" color-interpolation-filters="sRGB">
<feFlood flood-opacity="0" result="BackgroundImageFix"/>
<feColorMatrix in="SourceAlpha" type="matrix" values="0 0 0 0 0 0 0 0 0 0 0 0 0 0 0 0 0 0 127 0" result="hardAlpha"/>
<feOffset dy="1"/>
<feGaussianBlur stdDeviation="5"/>
<feColorMatrix type="matrix" values="0 0 0 0 0 0 0 0 0 0 0 0 0 0 0 0 0 0 0.05 0"/>
<feBlend mode="normal" in2="BackgroundImageFix" result="effect1_dropShadow_11_2061"/>
<feBlend mode="normal" in="SourceGraphic" in2="effect1_dropShadow_11_2061" result="shape"/>
</filter>
<linearGradient id="paint0_linear_11_2061" x1="244.354" y1="186.424" x2="58.4373" y2="68.9519" gradientUnits="userSpaceOnUse">
<stop stop-color="white"/>
<stop offset="1" stop-color="white" stop-opacity="0"/>
</linearGradient>
<clipPath id="clip0_11_2061">
<rect width="31.0671" height="24.2711" fill="white" transform="translate(35 29)"/>
</clipPath>
<clipPath id="clip1_11_2061">
<rect width="50" height="16" fill="white" transform="translate(81 33)"/>
</clipPath>
</defs>
</svg>
