<svg width="16" height="12" viewBox="0 0 16 12" fill="none" xmlns="http://www.w3.org/2000/svg">
<path fill-rule="evenodd" clip-rule="evenodd" d="M8.30043 2.69632C10.5348 2.69642 12.6838 3.55497 14.3032 5.09453C14.4251 5.21339 14.62 5.21189 14.7401 5.09117L15.9058 3.91476C15.9666 3.85352 16.0005 3.77059 16 3.68429C15.9995 3.598 15.9646 3.51546 15.9031 3.45494C11.6528 -0.618364 4.9474 -0.618364 0.697078 3.45494C0.635507 3.51541 0.600578 3.59793 0.600013 3.68422C0.599439 3.77052 0.633289 3.85348 0.694053 3.91476L1.86006 5.09117C1.98007 5.21207 2.17514 5.21358 2.29701 5.09453C3.91658 3.55487 6.0658 2.69632 8.30043 2.69632ZM8.30043 6.52371C9.5281 6.52363 10.7119 6.97995 11.622 7.80399C11.745 7.92094 11.9389 7.9184 12.0589 7.79827L13.2232 6.62186C13.2845 6.56015 13.3186 6.47644 13.3177 6.38945C13.3168 6.30247 13.2811 6.21947 13.2185 6.15902C10.4474 3.58128 6.15585 3.58128 3.38469 6.15902C3.32209 6.21947 3.28638 6.30251 3.28556 6.38952C3.28473 6.47654 3.31888 6.56024 3.38032 6.62186L4.5443 7.79827C4.66428 7.9184 4.85817 7.92094 4.98125 7.80399C5.89066 6.98049 7.07357 6.52422 8.30043 6.52371ZM10.538 9.33131C10.6002 9.2702 10.6345 9.1861 10.6327 9.09887C10.631 9.01164 10.5933 8.92901 10.5286 8.87049C9.24233 7.78259 7.35852 7.78259 6.07229 8.87049C6.00754 8.92896 5.96978 9.01157 5.96793 9.0988C5.96608 9.18603 6.00032 9.27015 6.06254 9.33131L8.07691 11.3638C8.13595 11.4236 8.21643 11.4572 8.30043 11.4572C8.38442 11.4572 8.4649 11.4236 8.52394 11.3638L10.538 9.33131Z" fill="black"/>
</svg>
